<svg width="18" height="18" viewBox="0 0 18 18" fill="none" xmlns="http://www.w3.org/2000/svg">
<path d="M1.5 4H3.16667H16.5" stroke="#B6B6B6" stroke-width="1.2" stroke-linecap="round" stroke-linejoin="round"/>
<path d="M5.66663 4.00001V2.33334C5.66663 1.89131 5.84222 1.46739 6.15478 1.15483C6.46734 0.842266 6.89127 0.666672 7.33329 0.666672H10.6666C11.1087 0.666672 11.5326 0.842266 11.8451 1.15483C12.1577 1.46739 12.3333 1.89131 12.3333 2.33334V4.00001M14.8333 4.00001V15.6667C14.8333 16.1087 14.6577 16.5326 14.3451 16.8452C14.0326 17.1577 13.6087 17.3333 13.1666 17.3333H4.83329C4.39127 17.3333 3.96734 17.1577 3.65478 16.8452C3.34222 16.5326 3.16663 16.1087 3.16663 15.6667V4.00001H14.8333Z" stroke="#B6B6B6" stroke-width="1.2" stroke-linecap="round" stroke-linejoin="round"/>
<path d="M7.33337 8.16667V13.1667" stroke="#B6B6B6" stroke-width="1.2" stroke-linecap="round" stroke-linejoin="round"/>
<path d="M10.6666 8.16667V13.1667" stroke="#B6B6B6" stroke-width="1.2" stroke-linecap="round" stroke-linejoin="round"/>
</svg>
